<svg width="50" height="50" viewBox="0 0 50 50" fill="none" xmlns="http://www.w3.org/2000/svg">
<path fill-rule="evenodd" clip-rule="evenodd" d="M13.1979 33.4295C12.2667 34.3606 12.2667 35.8703 13.1979 36.8014C14.129 37.7325 15.6386 37.7325 16.5697 36.8014L24.9996 28.3715L33.4298 36.8017C34.3609 37.7328 35.8706 37.7328 36.8017 36.8017C37.7328 35.8706 37.7328 34.3609 36.8017 33.4298L28.3715 24.9996L36.801 16.5701C37.7321 15.639 37.7321 14.1294 36.801 13.1983C35.8699 12.2672 34.3602 12.2672 33.4291 13.1983L24.9996 21.6278L16.5704 13.1986C15.6393 12.2675 14.1297 12.2675 13.1985 13.1986C12.2674 14.1297 12.2674 15.6394 13.1985 16.5705L21.6277 24.9996L13.1979 33.4295Z" fill="#111111"/>
</svg>
