<svg width="30" height="28" viewBox="0 0 30 28" fill="none" xmlns="http://www.w3.org/2000/svg">
<path d="M15 10.5C15.9946 10.5 16.9484 10.8687 17.6517 11.5251C18.3549 12.1815 18.75 13.0717 18.75 14C18.75 14.9283 18.3549 15.8185 17.6517 16.4749C16.9484 17.1313 15.9946 17.5 15 17.5C14.0054 17.5 13.0516 17.1313 12.3484 16.4749C11.6451 15.8185 11.25 14.9283 11.25 14C11.25 13.0717 11.6451 12.1815 12.3484 11.5251C13.0516 10.8687 14.0054 10.5 15 10.5ZM15 5.25C21.25 5.25 26.5875 8.87833 28.75 14C26.5875 19.1217 21.25 22.75 15 22.75C8.75 22.75 3.4125 19.1217 1.25 14C3.4125 8.87833 8.75 5.25 15 5.25ZM3.975 14C6.0375 17.92 10.3 20.4167 15 20.4167C19.7 20.4167 23.9625 17.92 26.025 14C23.9625 10.08 19.7 7.58333 15 7.58333C10.3 7.58333 6.0375 10.08 3.975 14Z" fill="black"/>
</svg>
