<svg width="24" height="24" viewBox="0 0 24 24" fill="none" xmlns="http://www.w3.org/2000/svg">
<path fill-rule="evenodd" clip-rule="evenodd" d="M19.3598 4.94078C19.0337 4.6161 18.6133 4.4028 18.1587 4.33135C17.7041 4.25991 17.2385 4.33397 16.8285 4.54296C16.8053 4.50986 16.5884 4.27047 16.5032 4.18456C16.0972 3.77949 15.5471 3.552 14.9735 3.552C14.4 3.552 13.8499 3.77949 13.4438 4.18456L9.59235 8.03606C9.46035 8.1681 9.3862 8.34716 9.3862 8.53386C9.3862 8.72057 9.46035 8.89963 9.59235 9.03167C9.72546 9.16164 9.90412 9.2344 10.0902 9.2344C10.2762 9.2344 10.4549 9.16164 10.588 9.03167L14.4395 5.18018C14.5811 5.03859 14.7732 4.95905 14.9735 4.95905C15.1738 4.95905 15.3659 5.03859 15.5076 5.18018L15.7653 5.43859L14.1987 7.00453C14.1303 7.07316 14.0919 7.16607 14.0919 7.26294C14.0919 7.35981 14.1303 7.45273 14.1987 7.52135L16.7799 10.0991C16.8483 10.1674 16.941 10.2057 17.0376 10.2057C17.1343 10.2057 17.227 10.1674 17.2953 10.0991L19.3598 8.03465C19.7697 7.62419 20 7.06781 20 6.48771C20 5.90761 19.7697 5.35123 19.3598 4.94078ZM13.4242 8.2951C13.3557 8.22678 13.2629 8.18841 13.1661 8.18841C13.0694 8.18841 12.9766 8.22678 12.9081 8.2951L7.11535 14.0892C7.0135 14.1909 6.93269 14.3116 6.87756 14.4445C6.82243 14.5774 6.79405 14.7199 6.79405 14.8638C6.79405 15.0076 6.82243 15.1501 6.87756 15.283C6.93269 15.4159 7.0135 15.5367 7.11535 15.6383L8.66439 17.1873C8.76603 17.2892 8.88675 17.37 9.01965 17.4251C9.15256 17.4802 9.29503 17.5086 9.43892 17.5086C9.5828 17.5086 9.72527 17.4802 9.85818 17.4251C9.99108 17.37 10.1118 17.2892 10.2134 17.1873L16.0069 11.3939C16.0752 11.3254 16.1136 11.2326 16.1136 11.1358C16.1136 11.0391 16.0752 10.9463 16.0069 10.8778L13.4242 8.2951ZM5.81761 15.9674C5.87451 15.984 5.9263 16.0147 5.96817 16.0566L8.39102 18.4802C8.43297 18.5221 8.46367 18.5739 8.48027 18.6308C8.49687 18.6877 8.49884 18.7478 8.48599 18.8057C8.47314 18.8636 8.44589 18.9172 8.40676 18.9618C8.36763 19.0063 8.3179 19.0402 8.26217 19.0604L4.46982 20.4292C4.40667 20.4509 4.33871 20.4547 4.27355 20.44C4.20839 20.4254 4.14859 20.3928 4.10087 20.3461C4.05361 20.2989 4.02076 20.2392 4.00617 20.1739C3.99158 20.1087 3.99586 20.0407 4.01849 19.9778L5.38798 16.1855C5.40817 16.1298 5.44209 16.08 5.48661 16.0409C5.53114 16.0018 5.58482 15.9745 5.64268 15.9617C5.70054 15.9488 5.76071 15.9508 5.81761 15.9674Z" fill="black"/>
</svg>
