<svg width="46" height="46" viewBox="0 0 46 46" fill="none" xmlns="http://www.w3.org/2000/svg">
<g opacity="0.8" clip-path="url(#clip0_2_103)">
<path fill-rule="evenodd" clip-rule="evenodd" d="M20.6653 34.5203C20.6653 35.6038 21.5436 36.4822 22.6272 36.4822C23.7107 36.4822 24.5891 35.6038 24.5891 34.5203L24.5891 24.7108L34.399 24.7108C35.4825 24.7108 36.3609 23.8324 36.3609 22.7488C36.3609 21.6653 35.4825 20.7869 34.399 20.7869L24.5891 20.7869L24.5891 10.9773C24.5891 9.89373 23.7107 9.01535 22.6272 9.01535C21.5437 9.01535 20.6653 9.89373 20.6653 10.9773L20.6653 20.7869L10.856 20.7869C9.77244 20.7869 8.89406 21.6653 8.89406 22.7489C8.89406 23.8324 9.77244 24.7108 10.856 24.7108L20.6653 24.7108L20.6653 34.5203Z" fill="#111111"/>
</g>
<defs>
<clipPath id="clip0_2_103">
<rect width="32" height="32" fill="white" transform="translate(0 22.7487) rotate(-45)"/>
</clipPath>
</defs>
</svg>
