<svg width="37" height="35" viewBox="0 0 37 35" fill="none" xmlns="http://www.w3.org/2000/svg">
<path d="M26.4545 22.0263H24.7862L24.1949 21.486C26.5118 18.9323 27.6927 15.6288 27.4896 12.2691C27.2865 8.90937 25.7153 5.75474 23.1057 3.4675C20.4961 1.18026 17.0512 -0.0617051 13.4941 0.00236088C9.93713 0.0664268 6.54469 1.43154 4.02905 3.81109C1.51341 6.19064 0.0702258 9.39956 0.00249591 12.7642C-0.065234 16.1287 1.24775 19.3873 3.66581 21.8557C6.08386 24.3241 9.4189 25.8104 12.9708 26.0025C16.5226 26.1946 20.015 25.0776 22.7148 22.886L23.286 23.4454V25.025L33.8516 35L37 32.022L26.4545 22.0263ZM13.7754 22.0263C11.8947 22.0263 10.0562 21.4988 8.49249 20.5104C6.92875 19.5221 5.70997 18.1173 4.99026 16.4738C4.27055 14.8303 4.08224 13.0218 4.44915 11.277C4.81605 9.53224 5.72169 7.92957 7.05154 6.67166C8.38138 5.41375 10.0757 4.55711 11.9203 4.21005C13.7648 3.863 15.6767 4.04112 17.4143 4.72189C19.1518 5.40267 20.6369 6.55552 21.6818 8.03466C22.7266 9.5138 23.2843 11.2528 23.2843 13.0317C23.2858 14.2133 23.0409 15.3836 22.5636 16.4755C22.0863 17.5675 21.3859 18.5596 20.5026 19.3951C19.6194 20.2306 18.5705 20.8931 17.4161 21.3446C16.2617 21.7961 15.0245 22.0277 13.7754 22.0263Z" fill="white"/>
</svg>
